<svg width="239" height="239" viewBox="0 0 239 239" fill="none" xmlns="http://www.w3.org/2000/svg">
<g filter="url(#filter0_d_260_10)">
<circle cx="119.22" cy="115.22" r="104.22" fill="white"/>
</g>
<circle cx="119.22" cy="115.22" r="104.22" fill="url(#paint0_linear_260_10)"/>
<g filter="url(#filter1_i_260_10)">
<mask id="mask0_260_10" style="mask-type:alpha" maskUnits="userSpaceOnUse" x="48" y="44" width="144" height="144">
<rect x="48.1606" y="44.1602" width="142.897" height="142.897" fill="#D9D9D9"/>
</mask>
<g mask="url(#mask0_260_10)">
<path d="M54.1156 149.695V80.7771C54.1156 79.2886 54.4629 77.9241 55.1576 76.6837C55.8522 75.4433 56.8941 74.4757 58.2834 73.7811C62.4512 71.7964 66.7927 70.3327 71.3079 69.39C75.823 68.4473 80.4126 67.9759 85.0766 67.9759C92.5191 67.9759 98.9941 68.9434 104.502 70.8785C110.009 72.8136 115.74 75.6665 121.694 79.4374C122.488 79.9336 123.133 80.6034 123.629 81.4469C124.125 82.2904 124.373 83.2579 124.373 84.3495V149.844C129.335 147.363 134.197 145.502 138.961 144.262C143.724 143.022 148.785 142.401 154.143 142.401C157.914 142.401 161.809 142.699 165.828 143.294C169.847 143.89 173.296 144.684 176.173 145.676V76.3116C176.173 75.0215 176.595 73.9548 177.439 73.1113C178.282 72.2678 179.349 71.846 180.639 71.846C181.929 71.846 182.996 72.2678 183.839 73.1113C184.683 73.9548 185.104 75.0215 185.104 76.3116V149.695C185.104 152.474 183.988 154.582 181.755 156.021C179.522 157.46 177.314 157.485 175.131 156.096C171.757 154.706 168.334 153.59 164.861 152.746C161.387 151.903 157.815 151.481 154.143 151.481C148.686 151.481 143.401 152.3 138.291 153.937C133.18 155.575 128.343 157.832 123.778 160.71C123.182 161.107 122.562 161.38 121.917 161.529C121.272 161.678 120.602 161.752 119.908 161.752C119.213 161.752 118.543 161.678 117.898 161.529C117.253 161.38 116.633 161.107 116.038 160.71C111.374 157.832 106.437 155.575 101.227 153.937C96.0171 152.3 90.6337 151.481 85.0766 151.481C81.4049 151.481 77.8325 151.928 74.3593 152.821C70.8861 153.714 67.4129 154.806 63.9398 156.096C61.6574 157.187 59.4494 157.038 57.3159 155.649C55.1824 154.26 54.1156 152.275 54.1156 149.695ZM139.258 124.837V66.7851C139.258 65.7928 139.531 64.8997 140.077 64.1058C140.623 63.3119 141.342 62.7661 142.235 62.4684L156.823 57.5564C157.914 57.1594 158.931 57.3083 159.874 58.0029C160.817 58.6975 161.288 59.5906 161.288 60.6822V119.032C161.288 120.024 160.991 120.917 160.395 121.711C159.8 122.505 159.055 123.051 158.162 123.348L143.575 127.963C142.483 128.36 141.491 128.211 140.598 127.516C139.705 126.822 139.258 125.929 139.258 124.837Z" fill="#67CEBC"/>
</g>
</g>
<defs>
<filter id="filter0_d_260_10" x="-0.000488281" y="0" width="238.44" height="238.441" filterUnits="userSpaceOnUse" color-interpolation-filters="sRGB">
<feFlood flood-opacity="0" result="BackgroundImageFix"/>
<feColorMatrix in="SourceAlpha" type="matrix" values="0 0 0 0 0 0 0 0 0 0 0 0 0 0 0 0 0 0 127 0" result="hardAlpha"/>
<feMorphology radius="5" operator="dilate" in="SourceAlpha" result="effect1_dropShadow_260_10"/>
<feOffset dy="4"/>
<feGaussianBlur stdDeviation="5"/>
<feComposite in2="hardAlpha" operator="out"/>
<feColorMatrix type="matrix" values="0 0 0 0 0.141734 0 0 0 0 0.701923 0 0 0 0 0.60389 0 0 0 1 0"/>
<feBlend mode="normal" in2="BackgroundImageFix" result="effect1_dropShadow_260_10"/>
<feBlend mode="normal" in="SourceGraphic" in2="effect1_dropShadow_260_10" result="shape"/>
</filter>
<filter id="filter1_i_260_10" x="54.1156" y="57.3398" width="130.989" height="108.41" filterUnits="userSpaceOnUse" color-interpolation-filters="sRGB">
<feFlood flood-opacity="0" result="BackgroundImageFix"/>
<feBlend mode="normal" in="SourceGraphic" in2="BackgroundImageFix" result="shape"/>
<feColorMatrix in="SourceAlpha" type="matrix" values="0 0 0 0 0 0 0 0 0 0 0 0 0 0 0 0 0 0 127 0" result="hardAlpha"/>
<feOffset dy="4"/>
<feGaussianBlur stdDeviation="3"/>
<feComposite in2="hardAlpha" operator="arithmetic" k2="-1" k3="1"/>
<feColorMatrix type="matrix" values="0 0 0 0 0.249445 0 0 0 0 0.730769 0 0 0 0 0.64583 0 0 0 1 0"/>
<feBlend mode="normal" in2="shape" result="effect1_innerShadow_260_10"/>
</filter>
<linearGradient id="paint0_linear_260_10" x1="119.22" y1="11" x2="119.22" y2="219.44" gradientUnits="userSpaceOnUse">
<stop stop-color="white" stop-opacity="0"/>
<stop offset="1" stop-color="#C1E9E2"/>
</linearGradient>
</defs>
</svg>
