<svg width="239" height="239" viewBox="0 0 239 239" fill="none" xmlns="http://www.w3.org/2000/svg">
<g filter="url(#filter0_d_260_46)">
<circle cx="119.22" cy="115.779" r="104.22" fill="white"/>
</g>
<g filter="url(#filter1_d_260_46)">
<circle cx="119.22" cy="115.779" r="104.22" fill="url(#paint0_linear_260_46)" shape-rendering="crispEdges"/>
</g>
<g filter="url(#filter2_i_260_46)">
<mask id="mask0_260_46" style="mask-type:alpha" maskUnits="userSpaceOnUse" x="48" y="44" width="144" height="144">
<rect x="48.1616" y="44.7188" width="142.897" height="142.897" fill="#D9D9D9"/>
</mask>
<g mask="url(#mask0_260_46)">
<path d="M80.3136 102.77H60.963C61.3599 101.083 61.8809 99.4955 62.5259 98.007C63.1709 96.5185 64.0392 95.0796 65.1308 93.6903L88.0538 63.027C89.7408 60.7447 91.9984 59.2313 94.8266 58.4871C97.6547 57.7428 100.359 58.0653 102.939 59.4546L107.107 61.5385C109.191 62.6301 110.803 64.1186 111.944 66.0041C113.086 67.8895 113.656 69.9734 113.656 72.2558V84.7593L124.671 81.9311C127.648 81.1372 130.526 81.5094 133.304 83.0475C136.083 84.5856 137.968 86.7936 138.961 89.6713L148.636 118.846L173.941 144.151C175.925 146.135 177.29 148.269 178.034 150.551C178.778 152.834 179.151 155.265 179.151 157.845C179.151 161.814 178.009 165.312 175.727 168.339C173.445 171.366 170.517 173.474 166.945 174.665L99.8131 110.51C97.1337 108.03 94.1071 106.119 90.7332 104.78C87.3592 103.44 83.886 102.77 80.3136 102.77ZM132.411 175.707C129.434 175.707 126.606 175.161 123.927 174.07C121.248 172.978 118.767 171.44 116.484 169.455L68.1078 125.544C66.0239 123.659 64.3866 121.525 63.1957 119.144C62.0049 116.762 61.1615 114.281 60.6653 111.701H80.3136C82.7944 111.701 85.2009 112.173 87.5329 113.115C89.8649 114.058 91.924 115.373 93.7102 117.06L154.888 175.707H132.411Z" fill="#3EB3FF"/>
</g>
</g>
<defs>
<filter id="filter0_d_260_46" x="0" y="0.558594" width="238.44" height="238.441" filterUnits="userSpaceOnUse" color-interpolation-filters="sRGB">
<feFlood flood-opacity="0" result="BackgroundImageFix"/>
<feColorMatrix in="SourceAlpha" type="matrix" values="0 0 0 0 0 0 0 0 0 0 0 0 0 0 0 0 0 0 127 0" result="hardAlpha"/>
<feMorphology radius="5" operator="dilate" in="SourceAlpha" result="effect1_dropShadow_260_46"/>
<feOffset dy="4"/>
<feGaussianBlur stdDeviation="5"/>
<feComposite in2="hardAlpha" operator="out"/>
<feColorMatrix type="matrix" values="0 0 0 0 0.0470588 0 0 0 0 0.635294 0 0 0 0 1 0 0 0 1 0"/>
<feBlend mode="normal" in2="BackgroundImageFix" result="effect1_dropShadow_260_46"/>
<feBlend mode="normal" in="SourceGraphic" in2="effect1_dropShadow_260_46" result="shape"/>
</filter>
<filter id="filter1_d_260_46" x="11" y="11.5586" width="216.44" height="216.441" filterUnits="userSpaceOnUse" color-interpolation-filters="sRGB">
<feFlood flood-opacity="0" result="BackgroundImageFix"/>
<feColorMatrix in="SourceAlpha" type="matrix" values="0 0 0 0 0 0 0 0 0 0 0 0 0 0 0 0 0 0 127 0" result="hardAlpha"/>
<feOffset dy="4"/>
<feGaussianBlur stdDeviation="2"/>
<feComposite in2="hardAlpha" operator="out"/>
<feColorMatrix type="matrix" values="0 0 0 0 0 0 0 0 0 0 0 0 0 0 0 0 0 0 0.25 0"/>
<feBlend mode="normal" in2="BackgroundImageFix" result="effect1_dropShadow_260_46"/>
<feBlend mode="normal" in="SourceGraphic" in2="effect1_dropShadow_260_46" result="shape"/>
</filter>
<filter id="filter2_i_260_46" x="60.6653" y="58.0977" width="118.485" height="121.609" filterUnits="userSpaceOnUse" color-interpolation-filters="sRGB">
<feFlood flood-opacity="0" result="BackgroundImageFix"/>
<feBlend mode="normal" in="SourceGraphic" in2="BackgroundImageFix" result="shape"/>
<feColorMatrix in="SourceAlpha" type="matrix" values="0 0 0 0 0 0 0 0 0 0 0 0 0 0 0 0 0 0 127 0" result="hardAlpha"/>
<feOffset dy="4"/>
<feGaussianBlur stdDeviation="3"/>
<feComposite in2="hardAlpha" operator="arithmetic" k2="-1" k3="1"/>
<feColorMatrix type="matrix" values="0 0 0 0 0.0352941 0 0 0 0 0.627451 0 0 0 0 1 0 0 0 1 0"/>
<feBlend mode="normal" in2="shape" result="effect1_innerShadow_260_46"/>
</filter>
<linearGradient id="paint0_linear_260_46" x1="119" y1="72.499" x2="119.22" y2="219.999" gradientUnits="userSpaceOnUse">
<stop stop-color="white" stop-opacity="0"/>
<stop offset="1" stop-color="#BED3DE"/>
</linearGradient>
</defs>
</svg>
