<svg width="239" height="239" viewBox="0 0 239 239" fill="none" xmlns="http://www.w3.org/2000/svg">
<g filter="url(#filter0_d_260_34)">
<circle cx="119.22" cy="115.22" r="104.22" fill="white"/>
</g>
<circle cx="119.22" cy="115.22" r="104.22" fill="url(#paint0_linear_260_34)"/>
<g filter="url(#filter1_i_260_34)">
<mask id="mask0_260_34" style="mask-type:alpha" maskUnits="userSpaceOnUse" x="48" y="44" width="144" height="144">
<rect x="48.1616" y="44.1602" width="142.897" height="142.897" fill="#D9D9D9"/>
</mask>
<g mask="url(#mask0_260_34)">
<path d="M124.374 149.845C129.336 147.364 134.198 145.503 138.961 144.263C143.725 143.022 148.786 142.402 154.144 142.402C157.915 142.402 161.81 142.7 165.829 143.295C169.848 143.89 173.296 144.684 176.174 145.677V81.8197C172.8 80.1327 169.228 78.8923 165.457 78.0984C161.686 77.3045 157.915 76.9076 154.144 76.9076C148.786 76.9076 143.601 77.7263 138.589 79.3637C133.578 81.001 128.84 83.3082 124.374 86.2852V149.845ZM119.909 161.604C119.115 161.604 118.395 161.529 117.75 161.38C117.105 161.232 116.535 160.959 116.038 160.562C111.374 157.684 106.413 155.451 101.153 153.864C95.8939 152.276 90.5353 151.482 85.0774 151.482C81.4058 151.482 77.8334 151.928 74.3602 152.822C70.887 153.715 67.4138 154.806 63.9406 156.096C61.6582 157.188 59.4503 157.039 57.3167 155.65C55.1832 154.26 54.1165 152.276 54.1165 149.696V80.7777C54.1165 79.2892 54.4638 77.9248 55.1584 76.6843C55.853 75.4439 56.895 74.4764 58.2843 73.7817C62.4521 71.7971 66.7936 70.3334 71.3087 69.3906C75.8239 68.4479 80.4134 67.9766 85.0774 67.9766C91.3292 67.9766 97.4072 68.8201 103.312 70.507C109.216 72.194 114.748 74.7741 119.909 78.2473C124.969 74.7741 130.403 72.194 136.208 70.507C142.013 68.8201 147.992 67.9766 154.144 67.9766C158.808 67.9766 163.373 68.4479 167.838 69.3906C172.304 70.3334 176.621 71.7971 180.789 73.7817C182.178 74.4764 183.245 75.4439 183.989 76.6843C184.733 77.9248 185.105 79.2892 185.105 80.7777V149.696C185.105 152.474 183.989 154.583 181.756 156.022C179.523 157.461 177.315 157.486 175.132 156.096C171.758 154.707 168.335 153.591 164.861 152.747C161.388 151.904 157.816 151.482 154.144 151.482C148.786 151.482 143.526 152.276 138.366 153.864C133.206 155.451 128.343 157.684 123.779 160.562C123.282 160.959 122.712 161.232 122.067 161.38C121.422 161.529 120.702 161.604 119.909 161.604ZM131.519 96.5559C131.519 95.9605 131.717 95.3899 132.114 94.8441C132.511 94.2984 132.958 93.9262 133.454 93.7278C136.431 92.6362 139.482 91.7927 142.608 91.1973C145.734 90.6019 148.984 90.3042 152.358 90.3042C154.541 90.3042 156.675 90.4282 158.759 90.6763C160.843 90.9244 162.877 91.2965 164.861 91.7927C165.457 91.9912 166.003 92.3633 166.499 92.9091C166.995 93.4549 167.243 94.0751 167.243 94.7697C167.243 95.8613 166.871 96.7048 166.127 97.3002C165.382 97.8956 164.465 98.0444 163.373 97.7467C161.686 97.2506 159.925 96.8784 158.089 96.6304C156.253 96.3823 154.343 96.2582 152.358 96.2582C149.48 96.2582 146.702 96.5311 144.022 97.0769C141.343 97.6227 138.713 98.4414 136.133 99.5329C134.744 100.029 133.628 100.004 132.784 99.4585C131.941 98.9127 131.519 97.9452 131.519 96.5559ZM131.519 129.303C131.519 128.708 131.717 128.112 132.114 127.517C132.511 126.921 132.958 126.525 133.454 126.326C136.431 125.235 139.482 124.416 142.608 123.87C145.734 123.324 148.984 123.051 152.358 123.051C154.541 123.051 156.675 123.175 158.759 123.424C160.843 123.672 162.877 124.044 164.861 124.54C165.457 124.738 166.003 125.11 166.499 125.656C166.995 126.202 167.243 126.822 167.243 127.517C167.243 128.608 166.871 129.452 166.127 130.047C165.382 130.643 164.465 130.792 163.373 130.494C161.686 129.998 159.925 129.626 158.089 129.378C156.253 129.129 154.343 129.005 152.358 129.005C149.48 129.005 146.702 129.253 144.022 129.75C141.343 130.246 138.713 131.04 136.133 132.131C134.744 132.627 133.628 132.627 132.784 132.131C131.941 131.635 131.519 130.692 131.519 129.303ZM131.519 112.93C131.519 112.334 131.717 111.764 132.114 111.218C132.511 110.672 132.958 110.3 133.454 110.101C136.431 109.01 139.482 108.166 142.608 107.571C145.734 106.975 148.984 106.678 152.358 106.678C154.541 106.678 156.675 106.802 158.759 107.05C160.843 107.298 162.877 107.67 164.861 108.166C165.457 108.365 166.003 108.737 166.499 109.283C166.995 109.828 167.243 110.449 167.243 111.143C167.243 112.235 166.871 113.078 166.127 113.674C165.382 114.269 164.465 114.418 163.373 114.12C161.686 113.624 159.925 113.252 158.089 113.004C156.253 112.756 154.343 112.632 152.358 112.632C149.48 112.632 146.702 112.905 144.022 113.45C141.343 113.996 138.713 114.815 136.133 115.907C134.744 116.403 133.628 116.378 132.784 115.832C131.941 115.286 131.519 114.319 131.519 112.93Z" fill="#FF9D2B"/>
</g>
</g>
<defs>
<filter id="filter0_d_260_34" x="0" y="0" width="238.44" height="238.441" filterUnits="userSpaceOnUse" color-interpolation-filters="sRGB">
<feFlood flood-opacity="0" result="BackgroundImageFix"/>
<feColorMatrix in="SourceAlpha" type="matrix" values="0 0 0 0 0 0 0 0 0 0 0 0 0 0 0 0 0 0 127 0" result="hardAlpha"/>
<feMorphology radius="5" operator="dilate" in="SourceAlpha" result="effect1_dropShadow_260_34"/>
<feOffset dy="4"/>
<feGaussianBlur stdDeviation="5"/>
<feComposite in2="hardAlpha" operator="out"/>
<feColorMatrix type="matrix" values="0 0 0 0 0.975962 0 0 0 0 0.559352 0 0 0 0 0.131379 0 0 0 1 0"/>
<feBlend mode="normal" in2="BackgroundImageFix" result="effect1_dropShadow_260_34"/>
<feBlend mode="normal" in="SourceGraphic" in2="effect1_dropShadow_260_34" result="shape"/>
</filter>
<filter id="filter1_i_260_34" x="54.1165" y="67.9766" width="130.989" height="97.6289" filterUnits="userSpaceOnUse" color-interpolation-filters="sRGB">
<feFlood flood-opacity="0" result="BackgroundImageFix"/>
<feBlend mode="normal" in="SourceGraphic" in2="BackgroundImageFix" result="shape"/>
<feColorMatrix in="SourceAlpha" type="matrix" values="0 0 0 0 0 0 0 0 0 0 0 0 0 0 0 0 0 0 127 0" result="hardAlpha"/>
<feOffset dy="4"/>
<feGaussianBlur stdDeviation="3"/>
<feComposite in2="hardAlpha" operator="arithmetic" k2="-1" k3="1"/>
<feColorMatrix type="matrix" values="0 0 0 0 0.908654 0 0 0 0 0.517249 0 0 0 0 0.122319 0 0 0 1 0"/>
<feBlend mode="normal" in2="shape" result="effect1_innerShadow_260_34"/>
</filter>
<linearGradient id="paint0_linear_260_34" x1="119.22" y1="45.5" x2="119.22" y2="219.44" gradientUnits="userSpaceOnUse">
<stop stop-color="white" stop-opacity="0"/>
<stop offset="1" stop-color="#F4D59E"/>
</linearGradient>
</defs>
</svg>
